<?xml version="1.0" encoding="UTF-8" standalone="no"?>
<svg xmlns="http://www.w3.org/2000/svg" xmlns:cc="http://creativecommons.org/ns#" xmlns:dc="http://purl.org/dc/elements/1.1/" xmlns:inkscape="http://www.inkscape.org/namespaces/inkscape" xmlns:rdf="http://www.w3.org/1999/02/22-rdf-syntax-ns#" xmlns:sodipodi="http://sodipodi.sourceforge.net/DTD/sodipodi-0.dtd" xmlns:svg="http://www.w3.org/2000/svg" id="svg4537" width="222.45467" height="306.74399" version="1.1" viewBox="0 0 222.45467 306.74399" inkscape:version="0.92.3 (unknown)" sodipodi:docname="logo.svg" xml:space="preserve">
    <metadata id="metadata4543">
        <rdf:RDF>
            <cc:Work rdf:about="">
                <dc:format>
                    image/svg+xml
                </dc:format>
                <dc:type rdf:resource="http://purl.org/dc/dcmitype/StillImage"/>
                <dc:title/>
            </cc:Work>
        </rdf:RDF>
    </metadata>
    <defs id="defs4541">
        <clipPath id="clipPath4553" clipPathUnits="userSpaceOnUse">
            <path id="path4551" d="M 0,300 H 500 V 0 H 0 Z" inkscape:connector-curvature="0"/>
        </clipPath>
    </defs>
    <sodipodi:namedview id="namedview4539" bordercolor="#666666" borderopacity="1" gridtolerance="10" guidetolerance="10" objecttolerance="10" pagecolor="#ffffff" showgrid="false" inkscape:current-layer="g4555" inkscape:cx="136.69221" inkscape:cy="154.82565" inkscape:pageopacity="0" inkscape:pageshadow="2" inkscape:window-height="700" inkscape:window-maximized="1" inkscape:window-width="1366" inkscape:window-x="0" inkscape:window-y="32" inkscape:zoom="1.576141"/>
    <g id="g4545" transform="matrix(1.3333333,0,0,-1.3333333,-216.54854,348.03228)" inkscape:groupmode="layer" inkscape:label="logo">
        <g id="g4547" transform="matrix(1,0,0,-1,-11.603393,291.18222)">
            <g id="g4549" clip-path="url(#clipPath4553)">
                <g id="g4555" transform="translate(257.7988,259.999)">
                    <path id="path4557" d="m 0,0 v 0.217 c 22.914,-0.048 42.461,-8.162 58.641,-24.342 10.076,-10.077 17.027,-21.413 20.855,-34.007 0.968,-3.198 1.744,-6.468 2.324,-9.81 0.776,-4.506 1.187,-9.133 1.237,-13.88 v -1.235 -0.508 -0.51 -0.58 -0.51 -0.363 -0.726 c -0.05,-0.145 -0.05,-0.291 0,-0.436 -0.05,-0.145 -0.05,-0.291 0,-0.436 -0.05,-0.146 -0.074,-0.291 -0.074,-0.436 -0.581,-11.676 -3.318,-22.478 -8.211,-32.41 -1.114,-2.276 -2.349,-4.505 -3.705,-6.684 -0.776,-1.162 -1.551,-2.325 -2.326,-3.489 L 8.938,-222.356 c -0.098,-0.195 -0.194,-0.364 -0.291,-0.509 -0.338,-0.485 -0.703,-0.968 -1.089,-1.453 -0.147,-0.097 -0.267,-0.194 -0.364,-0.291 l 0.073,-0.074 -3.343,-5.158 v 126.438 c 0.049,3.101 1.162,5.765 3.343,7.993 2.276,2.228 4.99,3.342 8.137,3.342 3.198,0 5.911,-1.114 8.14,-3.342 2.276,-2.277 3.414,-5.014 3.414,-8.212 v -0.145 -0.144 -0.438 c 0,-1.162 0.412,-2.155 1.236,-2.979 0.824,-0.822 1.841,-1.235 3.052,-1.235 1.162,0 2.155,0.413 2.979,1.235 0.823,0.824 1.236,1.817 1.236,2.979 0,0.388 -0.05,0.751 -0.147,1.091 -0.095,1.017 -0.144,1.792 -0.144,2.325 v 0.581 c 0.291,1.939 1.018,3.489 2.181,4.651 1.404,1.453 3.147,2.18 5.23,2.18 2.084,0 3.828,-0.727 5.233,-2.18 1.066,-1.066 1.767,-2.3 2.106,-3.706 0.05,-0.144 0.074,-0.315 0.074,-0.508 0,-1.164 0.436,-2.156 1.308,-2.98 0.774,-0.872 1.767,-1.307 2.978,-1.307 1.164,0 2.157,0.435 2.981,1.307 0.823,0.824 1.234,1.816 1.234,2.98 0,0.388 -0.048,0.775 -0.144,1.163 v 0.072 c -0.05,0.145 -0.098,0.291 -0.147,0.436 -0.048,0.096 -0.096,0.194 -0.144,0.291 -3.489,8.477 -8.212,15.695 -14.17,21.655 -11.046,10.996 -24.199,16.978 -39.458,17.947 v 11.918 l -0.29,1.453 c -0.194,0.484 -0.485,0.919 -0.872,1.307 -0.291,0.243 -0.582,0.462 -0.872,0.654 l -1.164,0.291 h -1.597 l -1.09,-0.291 c -0.34,-0.192 -0.654,-0.411 -0.945,-0.654 -0.388,-0.388 -0.678,-0.823 -0.873,-1.307 l -0.363,-1.381 v -0.145 -11.845 c -15.502,-0.823 -28.847,-6.806 -40.038,-17.947 -5.861,-5.911 -10.319,-12.403 -13.37,-19.475 -0.049,-0.049 -0.121,-0.219 -0.219,-0.508 -0.339,-0.825 -0.605,-1.6 -0.799,-2.326 -0.241,-0.679 -0.363,-1.115 -0.363,-1.308 0,-1.164 0.411,-2.156 1.235,-2.98 0.824,-0.872 1.817,-1.307 2.98,-1.307 1.21,0 2.204,0.435 2.979,1.307 0.678,0.63 1.09,1.356 1.234,2.18 0.05,0.194 0.074,0.363 0.074,0.509 v 0.291 c 0.29,1.454 0.992,2.736 2.107,3.851 1.404,1.453 3.149,2.18 5.232,2.18 2.083,0 3.827,-0.727 5.231,-2.18 1.454,-1.454 2.181,-3.222 2.181,-5.304 v -0.582 c -0.049,-0.678 -0.169,-1.333 -0.364,-1.961 -0.048,-0.098 -0.072,-0.243 -0.072,-0.438 0,-1.162 0.411,-2.155 1.234,-2.979 0.825,-0.822 1.817,-1.235 2.981,-1.235 1.21,0 2.228,0.413 3.051,1.235 0.775,0.775 1.187,1.672 1.235,2.69 -0.048,0.289 -0.072,0.605 -0.072,0.944 v 0.072 c 0,3.198 1.114,5.935 3.342,8.212 2.278,2.228 5.014,3.342 8.212,3.342 3.197,0 5.91,-1.114 8.138,-3.342 2.229,-2.228 3.368,-4.918 3.416,-8.066 v -0.146 c 0,-0.339 -0.025,-0.677 -0.073,-1.016 v -124.949 l -4.433,6.794 v 0.073 l -60.602,92.212 c -0.873,1.26 -1.696,2.519 -2.471,3.779 -8.09,12.886 -12.136,27.443 -12.136,43.672 v 1.235 c 0.05,4.747 0.461,9.374 1.236,13.88 h 0.363 c 0.581,3.342 1.357,6.612 2.325,9.81 3.828,12.594 10.756,23.93 20.782,34.007 16.278,16.229 35.897,24.342 58.859,24.342 v -0.363 z" style="fill:#40c057;fill-opacity:1;fill-rule:evenodd;stroke:none" inkscape:connector-curvature="0"/>
                </g>
            </g>
        </g>
    </g>
</svg>
